<svg xmlns="http://www.w3.org/2000/svg" height="40" viewBox="0 96 960 960" width="40"><path d="m385.834 969.333-18.667-124.666q-9.667-3.167-28.417-13.75-18.75-10.584-41.084-25.084l-115.833 51.334L86.5 689.834l105-77.5q-1.667-8.142-2-17.488-.333-9.346-.333-18.846 0-7.667.416-17.833.417-10.167 2.084-19.834L86.5 461.166 181.833 294.5l117 52q13.333-11 31.584-21.5 18.25-10.5 36.75-16.833L385.834 182H574.5l18.666 124.667q17.334 6.5 35.751 16.916Q647.334 334 661 346.5l117.5-52 95.333 166.666-107 77.208q1.334 8.959 1.834 18.376.5 9.417.5 19.25t-.5 19.175q-.5 9.342-2 18.047L873 689.834l-95.333 167.333L661 805.166q-13.147 11.076-30.407 21.455-17.26 10.379-37.427 18.046L574.5 969.333H385.834ZM479.397 706q53.793 0 91.781-38.034 37.989-38.033 37.989-92 0-53.966-38.024-91.966-38.024-38-91.976-38-54.5 0-92.25 38.034-37.75 38.033-37.75 92 0 53.966 37.75 91.966 37.75 38 92.48 38Zm-.23-63.333q-28 0-47.334-19.5Q412.5 603.667 412.5 576t19.333-47.167q19.334-19.5 47.334-19.5 27.666 0 47.166 19.5 19.5 19.5 19.5 47.167t-19.5 47.167q-19.5 19.5-47.166 19.5Zm.666-67.167ZM437.662 906h83.961l14.544-110.5q31.723-8.043 59.057-23.878 27.333-15.835 50.443-39.288l104.167 45L789 707.496l-92-67.829q3.834-16 6.334-31.753 2.5-15.754 2.5-31.993 0-16.421-1.917-31.838Q702 528.667 697 512.333L789 444l-38.5-70-105 45.333q-21.5-23.667-49.5-40.5t-59.833-22.667l-13.643-110.833h-84.857l-13.5 110.69q-34 7.81-60.667 23.06T313 419l-103.167-45-39.5 70 91.167 66.833q-4.334 17-6.667 32.713-2.333 15.713-2.333 31.924 0 16.363 2.083 32.03 2.083 15.667 6.417 32.833l-90.667 67.001 39.431 70 103.069-44.667Q337 756.834 364.583 772.5q27.584 15.667 59.584 23.5l13.495 110Z"/></svg>